<mxfile host="Electron" agent="Mozilla/5.0 (Windows NT 10.0; Win64; x64) AppleWebKit/537.36 (KHTML, like Gecko) draw.io/28.1.2 Chrome/138.0.7204.243 Electron/37.4.0 Safari/537.36" version="28.1.2">
  <diagram name="PÃ¡gina-1" id="bjjepzhwrdQlt7tEbjIs">
    <mxGraphModel dx="1090" dy="671" grid="1" gridSize="10" guides="1" tooltips="1" connect="1" arrows="1" fold="1" page="1" pageScale="1" pageWidth="583" pageHeight="827" math="0" shadow="0">
      <root>
        <mxCell id="0" />
        <mxCell id="1" parent="0" />
        <mxCell id="L8Z6CFat-6TSt6zDalqT-1" value="CLIENTE" style="rounded=1;whiteSpace=wrap;html=1;" parent="1" vertex="1">
          <mxGeometry x="111" y="155" width="120" height="60" as="geometry" />
        </mxCell>
        <mxCell id="L8Z6CFat-6TSt6zDalqT-2" value="PRODUCTO" style="rounded=1;whiteSpace=wrap;html=1;" parent="1" vertex="1">
          <mxGeometry x="370" y="155" width="120" height="60" as="geometry" />
        </mxCell>
        <mxCell id="L8Z6CFat-6TSt6zDalqT-3" value="FACTURA" style="rounded=1;whiteSpace=wrap;html=1;" parent="1" vertex="1">
          <mxGeometry x="630" y="155" width="120" height="60" as="geometry" />
        </mxCell>
        <mxCell id="L8Z6CFat-6TSt6zDalqT-4" value="DETALLES_FACTURA" style="rounded=1;whiteSpace=wrap;html=1;" parent="1" vertex="1">
          <mxGeometry x="880" y="155" width="140" height="60" as="geometry" />
        </mxCell>
        <mxCell id="L8Z6CFat-6TSt6zDalqT-6" value="adquiere" style="rhombus;whiteSpace=wrap;html=1;" parent="1" vertex="1">
          <mxGeometry x="261" y="145" width="80" height="80" as="geometry" />
        </mxCell>
        <mxCell id="L8Z6CFat-6TSt6zDalqT-7" value="obtiene" style="rhombus;whiteSpace=wrap;html=1;" parent="1" vertex="1">
          <mxGeometry x="521" y="145" width="80" height="80" as="geometry" />
        </mxCell>
        <mxCell id="L8Z6CFat-6TSt6zDalqT-8" value="resultado" style="rhombus;whiteSpace=wrap;html=1;" parent="1" vertex="1">
          <mxGeometry x="779" y="145" width="80" height="80" as="geometry" />
        </mxCell>
        <mxCell id="Kju_PUQ_FhrHSAObIlaB-2" value="id_cliente" style="ellipse;whiteSpace=wrap;html=1;aspect=fixed;" vertex="1" parent="1">
          <mxGeometry x="90" y="65" width="70" height="70" as="geometry" />
        </mxCell>
        <mxCell id="Kju_PUQ_FhrHSAObIlaB-4" value="nombre" style="ellipse;whiteSpace=wrap;html=1;aspect=fixed;" vertex="1" parent="1">
          <mxGeometry x="181" y="70" width="65" height="65" as="geometry" />
        </mxCell>
        <mxCell id="Kju_PUQ_FhrHSAObIlaB-5" value="telefono" style="ellipse;whiteSpace=wrap;html=1;aspect=fixed;" vertex="1" parent="1">
          <mxGeometry x="80" y="235" width="70" height="70" as="geometry" />
        </mxCell>
        <mxCell id="Kju_PUQ_FhrHSAObIlaB-6" value="direccion" style="ellipse;whiteSpace=wrap;html=1;aspect=fixed;" vertex="1" parent="1">
          <mxGeometry x="176" y="230" width="75" height="75" as="geometry" />
        </mxCell>
        <mxCell id="Kju_PUQ_FhrHSAObIlaB-7" value="id_producto" style="ellipse;whiteSpace=wrap;html=1;aspect=fixed;" vertex="1" parent="1">
          <mxGeometry x="360" y="65" width="70" height="70" as="geometry" />
        </mxCell>
        <mxCell id="Kju_PUQ_FhrHSAObIlaB-8" value="nombre" style="ellipse;whiteSpace=wrap;html=1;aspect=fixed;" vertex="1" parent="1">
          <mxGeometry x="440" y="65" width="70" height="70" as="geometry" />
        </mxCell>
        <mxCell id="Kju_PUQ_FhrHSAObIlaB-9" value="precio" style="ellipse;whiteSpace=wrap;html=1;aspect=fixed;" vertex="1" parent="1">
          <mxGeometry x="340" y="235" width="70" height="70" as="geometry" />
        </mxCell>
        <mxCell id="Kju_PUQ_FhrHSAObIlaB-10" value="stock" style="ellipse;whiteSpace=wrap;html=1;aspect=fixed;" vertex="1" parent="1">
          <mxGeometry x="446" y="232.5" width="75" height="75" as="geometry" />
        </mxCell>
        <mxCell id="Kju_PUQ_FhrHSAObIlaB-11" value="id_factura" style="ellipse;whiteSpace=wrap;html=1;aspect=fixed;" vertex="1" parent="1">
          <mxGeometry x="655" y="60" width="75" height="75" as="geometry" />
        </mxCell>
        <mxCell id="Kju_PUQ_FhrHSAObIlaB-13" value="fecha" style="ellipse;whiteSpace=wrap;html=1;aspect=fixed;" vertex="1" parent="1">
          <mxGeometry x="600" y="235" width="80" height="80" as="geometry" />
        </mxCell>
        <mxCell id="Kju_PUQ_FhrHSAObIlaB-14" value="id_cliente&amp;nbsp;&lt;div&gt;(FK)&lt;/div&gt;" style="ellipse;whiteSpace=wrap;html=1;aspect=fixed;" vertex="1" parent="1">
          <mxGeometry x="700" y="235" width="75" height="75" as="geometry" />
        </mxCell>
        <mxCell id="Kju_PUQ_FhrHSAObIlaB-15" value="id_producto (PK, FK)" style="ellipse;whiteSpace=wrap;html=1;aspect=fixed;" vertex="1" parent="1">
          <mxGeometry x="870" y="52.5" width="75" height="75" as="geometry" />
        </mxCell>
        <mxCell id="Kju_PUQ_FhrHSAObIlaB-16" value="id_factura (PK, FK)" style="ellipse;whiteSpace=wrap;html=1;aspect=fixed;" vertex="1" parent="1">
          <mxGeometry x="970" y="50" width="77.5" height="77.5" as="geometry" />
        </mxCell>
        <mxCell id="Kju_PUQ_FhrHSAObIlaB-17" value="id_producto (FK)" style="ellipse;whiteSpace=wrap;html=1;aspect=fixed;" vertex="1" parent="1">
          <mxGeometry x="925" y="244.5" width="70" height="70" as="geometry" />
        </mxCell>
        <mxCell id="Kju_PUQ_FhrHSAObIlaB-18" value="cantidad" style="ellipse;whiteSpace=wrap;html=1;aspect=fixed;" vertex="1" parent="1">
          <mxGeometry x="840" y="235" width="70" height="70" as="geometry" />
        </mxCell>
        <mxCell id="Kju_PUQ_FhrHSAObIlaB-19" value="subtotal" style="ellipse;whiteSpace=wrap;html=1;aspect=fixed;" vertex="1" parent="1">
          <mxGeometry x="1010" y="235" width="70" height="70" as="geometry" />
        </mxCell>
        <mxCell id="Kju_PUQ_FhrHSAObIlaB-20" value="CLIENTE" style="shape=table;startSize=30;container=1;collapsible=1;childLayout=tableLayout;fixedRows=1;rowLines=0;fontStyle=1;align=center;resizeLast=1;html=1;" vertex="1" parent="1">
          <mxGeometry x="130" y="430" width="180" height="150" as="geometry" />
        </mxCell>
        <mxCell id="Kju_PUQ_FhrHSAObIlaB-21" value="" style="shape=tableRow;horizontal=0;startSize=0;swimlaneHead=0;swimlaneBody=0;fillColor=none;collapsible=0;dropTarget=0;points=[[0,0.5],[1,0.5]];portConstraint=eastwest;top=0;left=0;right=0;bottom=1;" vertex="1" parent="Kju_PUQ_FhrHSAObIlaB-20">
          <mxGeometry y="30" width="180" height="30" as="geometry" />
        </mxCell>
        <mxCell id="Kju_PUQ_FhrHSAObIlaB-22" value="PK" style="shape=partialRectangle;connectable=0;fillColor=none;top=0;left=0;bottom=0;right=0;fontStyle=1;overflow=hidden;whiteSpace=wrap;html=1;" vertex="1" parent="Kju_PUQ_FhrHSAObIlaB-21">
          <mxGeometry width="30" height="30" as="geometry">
            <mxRectangle width="30" height="30" as="alternateBounds" />
          </mxGeometry>
        </mxCell>
        <mxCell id="Kju_PUQ_FhrHSAObIlaB-23" value="id_cliente" style="shape=partialRectangle;connectable=0;fillColor=none;top=0;left=0;bottom=0;right=0;align=left;spacingLeft=6;fontStyle=5;overflow=hidden;whiteSpace=wrap;html=1;" vertex="1" parent="Kju_PUQ_FhrHSAObIlaB-21">
          <mxGeometry x="30" width="150" height="30" as="geometry">
            <mxRectangle width="150" height="30" as="alternateBounds" />
          </mxGeometry>
        </mxCell>
        <mxCell id="Kju_PUQ_FhrHSAObIlaB-24" value="" style="shape=tableRow;horizontal=0;startSize=0;swimlaneHead=0;swimlaneBody=0;fillColor=none;collapsible=0;dropTarget=0;points=[[0,0.5],[1,0.5]];portConstraint=eastwest;top=0;left=0;right=0;bottom=0;" vertex="1" parent="Kju_PUQ_FhrHSAObIlaB-20">
          <mxGeometry y="60" width="180" height="30" as="geometry" />
        </mxCell>
        <mxCell id="Kju_PUQ_FhrHSAObIlaB-25" value="" style="shape=partialRectangle;connectable=0;fillColor=none;top=0;left=0;bottom=0;right=0;editable=1;overflow=hidden;whiteSpace=wrap;html=1;" vertex="1" parent="Kju_PUQ_FhrHSAObIlaB-24">
          <mxGeometry width="30" height="30" as="geometry">
            <mxRectangle width="30" height="30" as="alternateBounds" />
          </mxGeometry>
        </mxCell>
        <mxCell id="Kju_PUQ_FhrHSAObIlaB-26" value="nombre" style="shape=partialRectangle;connectable=0;fillColor=none;top=0;left=0;bottom=0;right=0;align=left;spacingLeft=6;overflow=hidden;whiteSpace=wrap;html=1;" vertex="1" parent="Kju_PUQ_FhrHSAObIlaB-24">
          <mxGeometry x="30" width="150" height="30" as="geometry">
            <mxRectangle width="150" height="30" as="alternateBounds" />
          </mxGeometry>
        </mxCell>
        <mxCell id="Kju_PUQ_FhrHSAObIlaB-27" value="" style="shape=tableRow;horizontal=0;startSize=0;swimlaneHead=0;swimlaneBody=0;fillColor=none;collapsible=0;dropTarget=0;points=[[0,0.5],[1,0.5]];portConstraint=eastwest;top=0;left=0;right=0;bottom=0;" vertex="1" parent="Kju_PUQ_FhrHSAObIlaB-20">
          <mxGeometry y="90" width="180" height="30" as="geometry" />
        </mxCell>
        <mxCell id="Kju_PUQ_FhrHSAObIlaB-28" value="" style="shape=partialRectangle;connectable=0;fillColor=none;top=0;left=0;bottom=0;right=0;editable=1;overflow=hidden;whiteSpace=wrap;html=1;" vertex="1" parent="Kju_PUQ_FhrHSAObIlaB-27">
          <mxGeometry width="30" height="30" as="geometry">
            <mxRectangle width="30" height="30" as="alternateBounds" />
          </mxGeometry>
        </mxCell>
        <mxCell id="Kju_PUQ_FhrHSAObIlaB-29" value="telefono" style="shape=partialRectangle;connectable=0;fillColor=none;top=0;left=0;bottom=0;right=0;align=left;spacingLeft=6;overflow=hidden;whiteSpace=wrap;html=1;" vertex="1" parent="Kju_PUQ_FhrHSAObIlaB-27">
          <mxGeometry x="30" width="150" height="30" as="geometry">
            <mxRectangle width="150" height="30" as="alternateBounds" />
          </mxGeometry>
        </mxCell>
        <mxCell id="Kju_PUQ_FhrHSAObIlaB-30" value="" style="shape=tableRow;horizontal=0;startSize=0;swimlaneHead=0;swimlaneBody=0;fillColor=none;collapsible=0;dropTarget=0;points=[[0,0.5],[1,0.5]];portConstraint=eastwest;top=0;left=0;right=0;bottom=0;" vertex="1" parent="Kju_PUQ_FhrHSAObIlaB-20">
          <mxGeometry y="120" width="180" height="30" as="geometry" />
        </mxCell>
        <mxCell id="Kju_PUQ_FhrHSAObIlaB-31" value="" style="shape=partialRectangle;connectable=0;fillColor=none;top=0;left=0;bottom=0;right=0;editable=1;overflow=hidden;whiteSpace=wrap;html=1;" vertex="1" parent="Kju_PUQ_FhrHSAObIlaB-30">
          <mxGeometry width="30" height="30" as="geometry">
            <mxRectangle width="30" height="30" as="alternateBounds" />
          </mxGeometry>
        </mxCell>
        <mxCell id="Kju_PUQ_FhrHSAObIlaB-32" value="direccion" style="shape=partialRectangle;connectable=0;fillColor=none;top=0;left=0;bottom=0;right=0;align=left;spacingLeft=6;overflow=hidden;whiteSpace=wrap;html=1;" vertex="1" parent="Kju_PUQ_FhrHSAObIlaB-30">
          <mxGeometry x="30" width="150" height="30" as="geometry">
            <mxRectangle width="150" height="30" as="alternateBounds" />
          </mxGeometry>
        </mxCell>
        <mxCell id="Kju_PUQ_FhrHSAObIlaB-33" value="PRODUCTO" style="shape=table;startSize=30;container=1;collapsible=1;childLayout=tableLayout;fixedRows=1;rowLines=0;fontStyle=1;align=center;resizeLast=1;html=1;" vertex="1" parent="1">
          <mxGeometry x="490" y="560" width="180" height="150" as="geometry" />
        </mxCell>
        <mxCell id="Kju_PUQ_FhrHSAObIlaB-34" value="" style="shape=tableRow;horizontal=0;startSize=0;swimlaneHead=0;swimlaneBody=0;fillColor=none;collapsible=0;dropTarget=0;points=[[0,0.5],[1,0.5]];portConstraint=eastwest;top=0;left=0;right=0;bottom=1;" vertex="1" parent="Kju_PUQ_FhrHSAObIlaB-33">
          <mxGeometry y="30" width="180" height="30" as="geometry" />
        </mxCell>
        <mxCell id="Kju_PUQ_FhrHSAObIlaB-35" value="PK" style="shape=partialRectangle;connectable=0;fillColor=none;top=0;left=0;bottom=0;right=0;fontStyle=1;overflow=hidden;whiteSpace=wrap;html=1;" vertex="1" parent="Kju_PUQ_FhrHSAObIlaB-34">
          <mxGeometry width="30" height="30" as="geometry">
            <mxRectangle width="30" height="30" as="alternateBounds" />
          </mxGeometry>
        </mxCell>
        <mxCell id="Kju_PUQ_FhrHSAObIlaB-36" value="id_producto" style="shape=partialRectangle;connectable=0;fillColor=none;top=0;left=0;bottom=0;right=0;align=left;spacingLeft=6;fontStyle=5;overflow=hidden;whiteSpace=wrap;html=1;" vertex="1" parent="Kju_PUQ_FhrHSAObIlaB-34">
          <mxGeometry x="30" width="150" height="30" as="geometry">
            <mxRectangle width="150" height="30" as="alternateBounds" />
          </mxGeometry>
        </mxCell>
        <mxCell id="Kju_PUQ_FhrHSAObIlaB-37" value="" style="shape=tableRow;horizontal=0;startSize=0;swimlaneHead=0;swimlaneBody=0;fillColor=none;collapsible=0;dropTarget=0;points=[[0,0.5],[1,0.5]];portConstraint=eastwest;top=0;left=0;right=0;bottom=0;" vertex="1" parent="Kju_PUQ_FhrHSAObIlaB-33">
          <mxGeometry y="60" width="180" height="30" as="geometry" />
        </mxCell>
        <mxCell id="Kju_PUQ_FhrHSAObIlaB-38" value="" style="shape=partialRectangle;connectable=0;fillColor=none;top=0;left=0;bottom=0;right=0;editable=1;overflow=hidden;whiteSpace=wrap;html=1;" vertex="1" parent="Kju_PUQ_FhrHSAObIlaB-37">
          <mxGeometry width="30" height="30" as="geometry">
            <mxRectangle width="30" height="30" as="alternateBounds" />
          </mxGeometry>
        </mxCell>
        <mxCell id="Kju_PUQ_FhrHSAObIlaB-39" value="nombre_producto" style="shape=partialRectangle;connectable=0;fillColor=none;top=0;left=0;bottom=0;right=0;align=left;spacingLeft=6;overflow=hidden;whiteSpace=wrap;html=1;" vertex="1" parent="Kju_PUQ_FhrHSAObIlaB-37">
          <mxGeometry x="30" width="150" height="30" as="geometry">
            <mxRectangle width="150" height="30" as="alternateBounds" />
          </mxGeometry>
        </mxCell>
        <mxCell id="Kju_PUQ_FhrHSAObIlaB-40" value="" style="shape=tableRow;horizontal=0;startSize=0;swimlaneHead=0;swimlaneBody=0;fillColor=none;collapsible=0;dropTarget=0;points=[[0,0.5],[1,0.5]];portConstraint=eastwest;top=0;left=0;right=0;bottom=0;" vertex="1" parent="Kju_PUQ_FhrHSAObIlaB-33">
          <mxGeometry y="90" width="180" height="30" as="geometry" />
        </mxCell>
        <mxCell id="Kju_PUQ_FhrHSAObIlaB-41" value="" style="shape=partialRectangle;connectable=0;fillColor=none;top=0;left=0;bottom=0;right=0;editable=1;overflow=hidden;whiteSpace=wrap;html=1;" vertex="1" parent="Kju_PUQ_FhrHSAObIlaB-40">
          <mxGeometry width="30" height="30" as="geometry">
            <mxRectangle width="30" height="30" as="alternateBounds" />
          </mxGeometry>
        </mxCell>
        <mxCell id="Kju_PUQ_FhrHSAObIlaB-42" value="precio" style="shape=partialRectangle;connectable=0;fillColor=none;top=0;left=0;bottom=0;right=0;align=left;spacingLeft=6;overflow=hidden;whiteSpace=wrap;html=1;" vertex="1" parent="Kju_PUQ_FhrHSAObIlaB-40">
          <mxGeometry x="30" width="150" height="30" as="geometry">
            <mxRectangle width="150" height="30" as="alternateBounds" />
          </mxGeometry>
        </mxCell>
        <mxCell id="Kju_PUQ_FhrHSAObIlaB-43" value="" style="shape=tableRow;horizontal=0;startSize=0;swimlaneHead=0;swimlaneBody=0;fillColor=none;collapsible=0;dropTarget=0;points=[[0,0.5],[1,0.5]];portConstraint=eastwest;top=0;left=0;right=0;bottom=0;" vertex="1" parent="Kju_PUQ_FhrHSAObIlaB-33">
          <mxGeometry y="120" width="180" height="30" as="geometry" />
        </mxCell>
        <mxCell id="Kju_PUQ_FhrHSAObIlaB-44" value="" style="shape=partialRectangle;connectable=0;fillColor=none;top=0;left=0;bottom=0;right=0;editable=1;overflow=hidden;whiteSpace=wrap;html=1;" vertex="1" parent="Kju_PUQ_FhrHSAObIlaB-43">
          <mxGeometry width="30" height="30" as="geometry">
            <mxRectangle width="30" height="30" as="alternateBounds" />
          </mxGeometry>
        </mxCell>
        <mxCell id="Kju_PUQ_FhrHSAObIlaB-45" value="stock" style="shape=partialRectangle;connectable=0;fillColor=none;top=0;left=0;bottom=0;right=0;align=left;spacingLeft=6;overflow=hidden;whiteSpace=wrap;html=1;" vertex="1" parent="Kju_PUQ_FhrHSAObIlaB-43">
          <mxGeometry x="30" width="150" height="30" as="geometry">
            <mxRectangle width="150" height="30" as="alternateBounds" />
          </mxGeometry>
        </mxCell>
        <mxCell id="Kju_PUQ_FhrHSAObIlaB-46" value="FACTURA" style="shape=table;startSize=30;container=1;collapsible=1;childLayout=tableLayout;fixedRows=1;rowLines=0;fontStyle=1;align=center;resizeLast=1;html=1;whiteSpace=wrap;" vertex="1" parent="1">
          <mxGeometry x="475" y="350" width="180" height="150" as="geometry" />
        </mxCell>
        <mxCell id="Kju_PUQ_FhrHSAObIlaB-59" value="" style="shape=tableRow;horizontal=0;startSize=0;swimlaneHead=0;swimlaneBody=0;fillColor=none;collapsible=0;dropTarget=0;points=[[0,0.5],[1,0.5]];portConstraint=eastwest;top=0;left=0;right=0;bottom=1;html=1;" vertex="1" parent="Kju_PUQ_FhrHSAObIlaB-46">
          <mxGeometry y="30" width="180" height="30" as="geometry" />
        </mxCell>
        <mxCell id="Kju_PUQ_FhrHSAObIlaB-60" value="PK" style="shape=partialRectangle;connectable=0;fillColor=none;top=0;left=0;bottom=0;right=0;fontStyle=1;overflow=hidden;html=1;whiteSpace=wrap;" vertex="1" parent="Kju_PUQ_FhrHSAObIlaB-59">
          <mxGeometry width="60" height="30" as="geometry">
            <mxRectangle width="60" height="30" as="alternateBounds" />
          </mxGeometry>
        </mxCell>
        <mxCell id="Kju_PUQ_FhrHSAObIlaB-61" value="id_factura" style="shape=partialRectangle;connectable=0;fillColor=none;top=0;left=0;bottom=0;right=0;align=left;spacingLeft=6;fontStyle=5;overflow=hidden;html=1;whiteSpace=wrap;" vertex="1" parent="Kju_PUQ_FhrHSAObIlaB-59">
          <mxGeometry x="60" width="120" height="30" as="geometry">
            <mxRectangle width="120" height="30" as="alternateBounds" />
          </mxGeometry>
        </mxCell>
        <mxCell id="Kju_PUQ_FhrHSAObIlaB-47" value="" style="shape=tableRow;horizontal=0;startSize=0;swimlaneHead=0;swimlaneBody=0;fillColor=none;collapsible=0;dropTarget=0;points=[[0,0.5],[1,0.5]];portConstraint=eastwest;top=0;left=0;right=0;bottom=0;html=1;" vertex="1" parent="Kju_PUQ_FhrHSAObIlaB-46">
          <mxGeometry y="60" width="180" height="30" as="geometry" />
        </mxCell>
        <mxCell id="Kju_PUQ_FhrHSAObIlaB-48" value="FK" style="shape=partialRectangle;connectable=0;fillColor=none;top=0;left=0;bottom=0;right=0;fontStyle=1;overflow=hidden;html=1;whiteSpace=wrap;" vertex="1" parent="Kju_PUQ_FhrHSAObIlaB-47">
          <mxGeometry width="60" height="30" as="geometry">
            <mxRectangle width="60" height="30" as="alternateBounds" />
          </mxGeometry>
        </mxCell>
        <mxCell id="Kju_PUQ_FhrHSAObIlaB-49" value="id_cliente" style="shape=partialRectangle;connectable=0;fillColor=none;top=0;left=0;bottom=0;right=0;align=left;spacingLeft=6;fontStyle=5;overflow=hidden;html=1;whiteSpace=wrap;" vertex="1" parent="Kju_PUQ_FhrHSAObIlaB-47">
          <mxGeometry x="60" width="120" height="30" as="geometry">
            <mxRectangle width="120" height="30" as="alternateBounds" />
          </mxGeometry>
        </mxCell>
        <mxCell id="Kju_PUQ_FhrHSAObIlaB-53" value="" style="shape=tableRow;horizontal=0;startSize=0;swimlaneHead=0;swimlaneBody=0;fillColor=none;collapsible=0;dropTarget=0;points=[[0,0.5],[1,0.5]];portConstraint=eastwest;top=0;left=0;right=0;bottom=0;html=1;" vertex="1" parent="Kju_PUQ_FhrHSAObIlaB-46">
          <mxGeometry y="90" width="180" height="30" as="geometry" />
        </mxCell>
        <mxCell id="Kju_PUQ_FhrHSAObIlaB-54" value="" style="shape=partialRectangle;connectable=0;fillColor=none;top=0;left=0;bottom=0;right=0;editable=1;overflow=hidden;html=1;whiteSpace=wrap;" vertex="1" parent="Kju_PUQ_FhrHSAObIlaB-53">
          <mxGeometry width="60" height="30" as="geometry">
            <mxRectangle width="60" height="30" as="alternateBounds" />
          </mxGeometry>
        </mxCell>
        <mxCell id="Kju_PUQ_FhrHSAObIlaB-55" value="fecha" style="shape=partialRectangle;connectable=0;fillColor=none;top=0;left=0;bottom=0;right=0;align=left;spacingLeft=6;overflow=hidden;html=1;whiteSpace=wrap;" vertex="1" parent="Kju_PUQ_FhrHSAObIlaB-53">
          <mxGeometry x="60" width="120" height="30" as="geometry">
            <mxRectangle width="120" height="30" as="alternateBounds" />
          </mxGeometry>
        </mxCell>
        <mxCell id="Kju_PUQ_FhrHSAObIlaB-56" value="" style="shape=tableRow;horizontal=0;startSize=0;swimlaneHead=0;swimlaneBody=0;fillColor=none;collapsible=0;dropTarget=0;points=[[0,0.5],[1,0.5]];portConstraint=eastwest;top=0;left=0;right=0;bottom=0;html=1;" vertex="1" parent="Kju_PUQ_FhrHSAObIlaB-46">
          <mxGeometry y="120" width="180" height="30" as="geometry" />
        </mxCell>
        <mxCell id="Kju_PUQ_FhrHSAObIlaB-57" value="" style="shape=partialRectangle;connectable=0;fillColor=none;top=0;left=0;bottom=0;right=0;editable=1;overflow=hidden;html=1;whiteSpace=wrap;" vertex="1" parent="Kju_PUQ_FhrHSAObIlaB-56">
          <mxGeometry width="60" height="30" as="geometry">
            <mxRectangle width="60" height="30" as="alternateBounds" />
          </mxGeometry>
        </mxCell>
        <mxCell id="Kju_PUQ_FhrHSAObIlaB-58" value="codigo" style="shape=partialRectangle;connectable=0;fillColor=none;top=0;left=0;bottom=0;right=0;align=left;spacingLeft=6;overflow=hidden;html=1;whiteSpace=wrap;" vertex="1" parent="Kju_PUQ_FhrHSAObIlaB-56">
          <mxGeometry x="60" width="120" height="30" as="geometry">
            <mxRectangle width="120" height="30" as="alternateBounds" />
          </mxGeometry>
        </mxCell>
        <mxCell id="Kju_PUQ_FhrHSAObIlaB-62" value="DETALLES" style="shape=table;startSize=30;container=1;collapsible=1;childLayout=tableLayout;fixedRows=1;rowLines=0;fontStyle=1;align=center;resizeLast=1;html=1;whiteSpace=wrap;" vertex="1" parent="1">
          <mxGeometry x="840" y="450" width="180" height="150" as="geometry" />
        </mxCell>
        <mxCell id="Kju_PUQ_FhrHSAObIlaB-63" value="" style="shape=tableRow;horizontal=0;startSize=0;swimlaneHead=0;swimlaneBody=0;fillColor=none;collapsible=0;dropTarget=0;points=[[0,0.5],[1,0.5]];portConstraint=eastwest;top=0;left=0;right=0;bottom=0;html=1;" vertex="1" parent="Kju_PUQ_FhrHSAObIlaB-62">
          <mxGeometry y="30" width="180" height="30" as="geometry" />
        </mxCell>
        <mxCell id="Kju_PUQ_FhrHSAObIlaB-64" value="PK, FK" style="shape=partialRectangle;connectable=0;fillColor=none;top=0;left=0;bottom=0;right=0;fontStyle=1;overflow=hidden;html=1;whiteSpace=wrap;" vertex="1" parent="Kju_PUQ_FhrHSAObIlaB-63">
          <mxGeometry width="60" height="30" as="geometry">
            <mxRectangle width="60" height="30" as="alternateBounds" />
          </mxGeometry>
        </mxCell>
        <mxCell id="Kju_PUQ_FhrHSAObIlaB-65" value="id_factura" style="shape=partialRectangle;connectable=0;fillColor=none;top=0;left=0;bottom=0;right=0;align=left;spacingLeft=6;fontStyle=5;overflow=hidden;html=1;whiteSpace=wrap;" vertex="1" parent="Kju_PUQ_FhrHSAObIlaB-63">
          <mxGeometry x="60" width="120" height="30" as="geometry">
            <mxRectangle width="120" height="30" as="alternateBounds" />
          </mxGeometry>
        </mxCell>
        <mxCell id="Kju_PUQ_FhrHSAObIlaB-66" value="" style="shape=tableRow;horizontal=0;startSize=0;swimlaneHead=0;swimlaneBody=0;fillColor=none;collapsible=0;dropTarget=0;points=[[0,0.5],[1,0.5]];portConstraint=eastwest;top=0;left=0;right=0;bottom=1;html=1;" vertex="1" parent="Kju_PUQ_FhrHSAObIlaB-62">
          <mxGeometry y="60" width="180" height="30" as="geometry" />
        </mxCell>
        <mxCell id="Kju_PUQ_FhrHSAObIlaB-67" value="PK, FK" style="shape=partialRectangle;connectable=0;fillColor=none;top=0;left=0;bottom=0;right=0;fontStyle=1;overflow=hidden;html=1;whiteSpace=wrap;" vertex="1" parent="Kju_PUQ_FhrHSAObIlaB-66">
          <mxGeometry width="60" height="30" as="geometry">
            <mxRectangle width="60" height="30" as="alternateBounds" />
          </mxGeometry>
        </mxCell>
        <mxCell id="Kju_PUQ_FhrHSAObIlaB-68" value="id_producto" style="shape=partialRectangle;connectable=0;fillColor=none;top=0;left=0;bottom=0;right=0;align=left;spacingLeft=6;fontStyle=5;overflow=hidden;html=1;whiteSpace=wrap;" vertex="1" parent="Kju_PUQ_FhrHSAObIlaB-66">
          <mxGeometry x="60" width="120" height="30" as="geometry">
            <mxRectangle width="120" height="30" as="alternateBounds" />
          </mxGeometry>
        </mxCell>
        <mxCell id="Kju_PUQ_FhrHSAObIlaB-69" value="" style="shape=tableRow;horizontal=0;startSize=0;swimlaneHead=0;swimlaneBody=0;fillColor=none;collapsible=0;dropTarget=0;points=[[0,0.5],[1,0.5]];portConstraint=eastwest;top=0;left=0;right=0;bottom=0;html=1;" vertex="1" parent="Kju_PUQ_FhrHSAObIlaB-62">
          <mxGeometry y="90" width="180" height="30" as="geometry" />
        </mxCell>
        <mxCell id="Kju_PUQ_FhrHSAObIlaB-70" value="" style="shape=partialRectangle;connectable=0;fillColor=none;top=0;left=0;bottom=0;right=0;editable=1;overflow=hidden;html=1;whiteSpace=wrap;" vertex="1" parent="Kju_PUQ_FhrHSAObIlaB-69">
          <mxGeometry width="60" height="30" as="geometry">
            <mxRectangle width="60" height="30" as="alternateBounds" />
          </mxGeometry>
        </mxCell>
        <mxCell id="Kju_PUQ_FhrHSAObIlaB-71" value="cantidad" style="shape=partialRectangle;connectable=0;fillColor=none;top=0;left=0;bottom=0;right=0;align=left;spacingLeft=6;overflow=hidden;html=1;whiteSpace=wrap;" vertex="1" parent="Kju_PUQ_FhrHSAObIlaB-69">
          <mxGeometry x="60" width="120" height="30" as="geometry">
            <mxRectangle width="120" height="30" as="alternateBounds" />
          </mxGeometry>
        </mxCell>
        <mxCell id="Kju_PUQ_FhrHSAObIlaB-72" value="" style="shape=tableRow;horizontal=0;startSize=0;swimlaneHead=0;swimlaneBody=0;fillColor=none;collapsible=0;dropTarget=0;points=[[0,0.5],[1,0.5]];portConstraint=eastwest;top=0;left=0;right=0;bottom=0;html=1;" vertex="1" parent="Kju_PUQ_FhrHSAObIlaB-62">
          <mxGeometry y="120" width="180" height="30" as="geometry" />
        </mxCell>
        <mxCell id="Kju_PUQ_FhrHSAObIlaB-73" value="" style="shape=partialRectangle;connectable=0;fillColor=none;top=0;left=0;bottom=0;right=0;editable=1;overflow=hidden;html=1;whiteSpace=wrap;" vertex="1" parent="Kju_PUQ_FhrHSAObIlaB-72">
          <mxGeometry width="60" height="30" as="geometry">
            <mxRectangle width="60" height="30" as="alternateBounds" />
          </mxGeometry>
        </mxCell>
        <mxCell id="Kju_PUQ_FhrHSAObIlaB-74" value="subtotal" style="shape=partialRectangle;connectable=0;fillColor=none;top=0;left=0;bottom=0;right=0;align=left;spacingLeft=6;overflow=hidden;html=1;whiteSpace=wrap;" vertex="1" parent="Kju_PUQ_FhrHSAObIlaB-72">
          <mxGeometry x="60" width="120" height="30" as="geometry">
            <mxRectangle width="120" height="30" as="alternateBounds" />
          </mxGeometry>
        </mxCell>
        <mxCell id="Kju_PUQ_FhrHSAObIlaB-78" value="" style="edgeStyle=entityRelationEdgeStyle;fontSize=12;html=1;endArrow=ERone;endFill=1;rounded=0;" edge="1" parent="1" source="Kju_PUQ_FhrHSAObIlaB-21" target="Kju_PUQ_FhrHSAObIlaB-47">
          <mxGeometry width="100" height="100" relative="1" as="geometry">
            <mxPoint x="382" y="414.5" as="sourcePoint" />
            <mxPoint x="482" y="314.5" as="targetPoint" />
          </mxGeometry>
        </mxCell>
        <mxCell id="Kju_PUQ_FhrHSAObIlaB-79" value="" style="edgeStyle=entityRelationEdgeStyle;fontSize=12;html=1;endArrow=ERone;endFill=1;rounded=0;exitX=1;exitY=0.5;exitDx=0;exitDy=0;" edge="1" parent="1" source="Kju_PUQ_FhrHSAObIlaB-34" target="Kju_PUQ_FhrHSAObIlaB-66">
          <mxGeometry width="100" height="100" relative="1" as="geometry">
            <mxPoint x="390" y="590" as="sourcePoint" />
            <mxPoint x="490" y="490" as="targetPoint" />
          </mxGeometry>
        </mxCell>
        <mxCell id="Kju_PUQ_FhrHSAObIlaB-80" value="" style="edgeStyle=entityRelationEdgeStyle;fontSize=12;html=1;endArrow=ERone;endFill=1;rounded=0;" edge="1" parent="1" source="Kju_PUQ_FhrHSAObIlaB-59" target="Kju_PUQ_FhrHSAObIlaB-63">
          <mxGeometry width="100" height="100" relative="1" as="geometry">
            <mxPoint x="680" y="490" as="sourcePoint" />
            <mxPoint x="780" y="390" as="targetPoint" />
          </mxGeometry>
        </mxCell>
        <mxCell id="Kju_PUQ_FhrHSAObIlaB-81" value="1:N" style="text;strokeColor=none;fillColor=none;spacingLeft=4;spacingRight=4;overflow=hidden;rotatable=0;points=[[0,0.5],[1,0.5]];portConstraint=eastwest;fontSize=12;whiteSpace=wrap;html=1;" vertex="1" parent="1">
          <mxGeometry x="370" y="420" width="40" height="30" as="geometry" />
        </mxCell>
        <mxCell id="Kju_PUQ_FhrHSAObIlaB-82" value="1:N" style="text;strokeColor=none;fillColor=none;spacingLeft=4;spacingRight=4;overflow=hidden;rotatable=0;points=[[0,0.5],[1,0.5]];portConstraint=eastwest;fontSize=12;whiteSpace=wrap;html=1;" vertex="1" parent="1">
          <mxGeometry x="739" y="420" width="40" height="30" as="geometry" />
        </mxCell>
        <mxCell id="Kju_PUQ_FhrHSAObIlaB-83" value="1:N" style="text;strokeColor=none;fillColor=none;spacingLeft=4;spacingRight=4;overflow=hidden;rotatable=0;points=[[0,0.5],[1,0.5]];portConstraint=eastwest;fontSize=12;whiteSpace=wrap;html=1;" vertex="1" parent="1">
          <mxGeometry x="725" y="540" width="40" height="30" as="geometry" />
        </mxCell>
        <mxCell id="Kju_PUQ_FhrHSAObIlaB-84" value="" style="endArrow=none;html=1;rounded=0;" edge="1" parent="1" source="L8Z6CFat-6TSt6zDalqT-1" target="Kju_PUQ_FhrHSAObIlaB-2">
          <mxGeometry width="50" height="50" relative="1" as="geometry">
            <mxPoint x="130" y="155" as="sourcePoint" />
            <mxPoint x="180" y="105" as="targetPoint" />
          </mxGeometry>
        </mxCell>
        <mxCell id="Kju_PUQ_FhrHSAObIlaB-85" value="" style="endArrow=none;html=1;rounded=0;exitX=0.354;exitY=0.046;exitDx=0;exitDy=0;exitPerimeter=0;" edge="1" parent="1" source="L8Z6CFat-6TSt6zDalqT-2" target="Kju_PUQ_FhrHSAObIlaB-7">
          <mxGeometry width="50" height="50" relative="1" as="geometry">
            <mxPoint x="350" y="185" as="sourcePoint" />
            <mxPoint x="400" y="135" as="targetPoint" />
          </mxGeometry>
        </mxCell>
        <mxCell id="Kju_PUQ_FhrHSAObIlaB-86" value="" style="endArrow=none;html=1;rounded=0;" edge="1" parent="1" source="L8Z6CFat-6TSt6zDalqT-2" target="Kju_PUQ_FhrHSAObIlaB-8">
          <mxGeometry width="50" height="50" relative="1" as="geometry">
            <mxPoint x="420" y="185" as="sourcePoint" />
            <mxPoint x="470" y="135" as="targetPoint" />
          </mxGeometry>
        </mxCell>
        <mxCell id="Kju_PUQ_FhrHSAObIlaB-87" value="" style="endArrow=none;html=1;rounded=0;exitX=0.5;exitY=0;exitDx=0;exitDy=0;" edge="1" parent="1" source="Kju_PUQ_FhrHSAObIlaB-9" target="L8Z6CFat-6TSt6zDalqT-2">
          <mxGeometry width="50" height="50" relative="1" as="geometry">
            <mxPoint x="400" y="240" as="sourcePoint" />
            <mxPoint x="400" y="215" as="targetPoint" />
          </mxGeometry>
        </mxCell>
        <mxCell id="Kju_PUQ_FhrHSAObIlaB-88" value="" style="endArrow=none;html=1;rounded=0;entryX=0.75;entryY=1;entryDx=0;entryDy=0;" edge="1" parent="1" source="Kju_PUQ_FhrHSAObIlaB-10" target="L8Z6CFat-6TSt6zDalqT-2">
          <mxGeometry width="50" height="50" relative="1" as="geometry">
            <mxPoint x="420" y="275" as="sourcePoint" />
            <mxPoint x="470" y="225" as="targetPoint" />
          </mxGeometry>
        </mxCell>
        <mxCell id="Kju_PUQ_FhrHSAObIlaB-89" value="" style="endArrow=none;html=1;rounded=0;" edge="1" parent="1" source="L8Z6CFat-6TSt6zDalqT-3" target="Kju_PUQ_FhrHSAObIlaB-11">
          <mxGeometry width="50" height="50" relative="1" as="geometry">
            <mxPoint x="640" y="185" as="sourcePoint" />
            <mxPoint x="690" y="135" as="targetPoint" />
          </mxGeometry>
        </mxCell>
        <mxCell id="Kju_PUQ_FhrHSAObIlaB-90" value="" style="endArrow=none;html=1;rounded=0;entryX=0.25;entryY=1;entryDx=0;entryDy=0;" edge="1" parent="1" source="Kju_PUQ_FhrHSAObIlaB-13" target="L8Z6CFat-6TSt6zDalqT-3">
          <mxGeometry width="50" height="50" relative="1" as="geometry">
            <mxPoint x="590" y="275" as="sourcePoint" />
            <mxPoint x="640" y="225" as="targetPoint" />
          </mxGeometry>
        </mxCell>
        <mxCell id="Kju_PUQ_FhrHSAObIlaB-91" value="" style="endArrow=none;html=1;rounded=0;" edge="1" parent="1" source="Kju_PUQ_FhrHSAObIlaB-14" target="L8Z6CFat-6TSt6zDalqT-3">
          <mxGeometry width="50" height="50" relative="1" as="geometry">
            <mxPoint x="675" y="265" as="sourcePoint" />
            <mxPoint x="725" y="215" as="targetPoint" />
          </mxGeometry>
        </mxCell>
        <mxCell id="Kju_PUQ_FhrHSAObIlaB-92" value="" style="endArrow=none;html=1;rounded=0;" edge="1" parent="1" source="L8Z6CFat-6TSt6zDalqT-4" target="Kju_PUQ_FhrHSAObIlaB-15">
          <mxGeometry width="50" height="50" relative="1" as="geometry">
            <mxPoint x="860" y="177.5" as="sourcePoint" />
            <mxPoint x="910" y="127.5" as="targetPoint" />
            <Array as="points">
              <mxPoint x="930" y="140" />
            </Array>
          </mxGeometry>
        </mxCell>
        <mxCell id="Kju_PUQ_FhrHSAObIlaB-93" value="" style="endArrow=none;html=1;rounded=0;exitX=0.75;exitY=0;exitDx=0;exitDy=0;" edge="1" parent="1" source="L8Z6CFat-6TSt6zDalqT-4" target="Kju_PUQ_FhrHSAObIlaB-16">
          <mxGeometry width="50" height="50" relative="1" as="geometry">
            <mxPoint x="990" y="160" as="sourcePoint" />
            <mxPoint x="1000" y="135" as="targetPoint" />
          </mxGeometry>
        </mxCell>
        <mxCell id="Kju_PUQ_FhrHSAObIlaB-94" value="" style="endArrow=none;html=1;rounded=0;entryX=0.25;entryY=1;entryDx=0;entryDy=0;exitX=0.643;exitY=0.021;exitDx=0;exitDy=0;exitPerimeter=0;" edge="1" parent="1" source="Kju_PUQ_FhrHSAObIlaB-18" target="L8Z6CFat-6TSt6zDalqT-4">
          <mxGeometry width="50" height="50" relative="1" as="geometry">
            <mxPoint x="850" y="285" as="sourcePoint" />
            <mxPoint x="900" y="235" as="targetPoint" />
          </mxGeometry>
        </mxCell>
        <mxCell id="Kju_PUQ_FhrHSAObIlaB-95" value="" style="endArrow=none;html=1;rounded=0;exitX=0.5;exitY=0;exitDx=0;exitDy=0;" edge="1" parent="1" source="Kju_PUQ_FhrHSAObIlaB-17" target="L8Z6CFat-6TSt6zDalqT-4">
          <mxGeometry width="50" height="50" relative="1" as="geometry">
            <mxPoint x="945" y="275" as="sourcePoint" />
            <mxPoint x="995" y="225" as="targetPoint" />
          </mxGeometry>
        </mxCell>
        <mxCell id="Kju_PUQ_FhrHSAObIlaB-96" value="" style="endArrow=none;html=1;rounded=0;entryX=0.25;entryY=1;entryDx=0;entryDy=0;exitX=0.5;exitY=0;exitDx=0;exitDy=0;" edge="1" parent="1" source="Kju_PUQ_FhrHSAObIlaB-5" target="L8Z6CFat-6TSt6zDalqT-1">
          <mxGeometry width="50" height="50" relative="1" as="geometry">
            <mxPoint x="80" y="275" as="sourcePoint" />
            <mxPoint x="130" y="225" as="targetPoint" />
          </mxGeometry>
        </mxCell>
        <mxCell id="Kju_PUQ_FhrHSAObIlaB-97" value="" style="endArrow=none;html=1;rounded=0;" edge="1" parent="1" source="Kju_PUQ_FhrHSAObIlaB-6" target="L8Z6CFat-6TSt6zDalqT-1">
          <mxGeometry width="50" height="50" relative="1" as="geometry">
            <mxPoint x="150" y="265" as="sourcePoint" />
            <mxPoint x="200" y="215" as="targetPoint" />
          </mxGeometry>
        </mxCell>
        <mxCell id="Kju_PUQ_FhrHSAObIlaB-98" value="" style="endArrow=none;html=1;rounded=0;" edge="1" parent="1" source="Kju_PUQ_FhrHSAObIlaB-19" target="L8Z6CFat-6TSt6zDalqT-4">
          <mxGeometry width="50" height="50" relative="1" as="geometry">
            <mxPoint x="945" y="265" as="sourcePoint" />
            <mxPoint x="995" y="215" as="targetPoint" />
          </mxGeometry>
        </mxCell>
        <mxCell id="Kju_PUQ_FhrHSAObIlaB-99" value="" style="endArrow=none;html=1;rounded=0;entryX=0;entryY=0.5;entryDx=0;entryDy=0;exitX=1;exitY=0.5;exitDx=0;exitDy=0;" edge="1" parent="1" source="L8Z6CFat-6TSt6zDalqT-1" target="L8Z6CFat-6TSt6zDalqT-6">
          <mxGeometry width="50" height="50" relative="1" as="geometry">
            <mxPoint x="231" y="190" as="sourcePoint" />
            <mxPoint x="281" y="140" as="targetPoint" />
          </mxGeometry>
        </mxCell>
        <mxCell id="Kju_PUQ_FhrHSAObIlaB-100" value="" style="endArrow=none;html=1;rounded=0;exitX=1;exitY=0.5;exitDx=0;exitDy=0;entryX=0;entryY=0.5;entryDx=0;entryDy=0;" edge="1" parent="1" source="L8Z6CFat-6TSt6zDalqT-6" target="L8Z6CFat-6TSt6zDalqT-2">
          <mxGeometry width="50" height="50" relative="1" as="geometry">
            <mxPoint x="341" y="190" as="sourcePoint" />
            <mxPoint x="391" y="140" as="targetPoint" />
          </mxGeometry>
        </mxCell>
        <mxCell id="Kju_PUQ_FhrHSAObIlaB-101" value="" style="endArrow=none;html=1;rounded=0;entryX=0;entryY=0.5;entryDx=0;entryDy=0;" edge="1" parent="1" source="L8Z6CFat-6TSt6zDalqT-2" target="L8Z6CFat-6TSt6zDalqT-7">
          <mxGeometry width="50" height="50" relative="1" as="geometry">
            <mxPoint x="490" y="185" as="sourcePoint" />
            <mxPoint x="540" y="135" as="targetPoint" />
          </mxGeometry>
        </mxCell>
        <mxCell id="Kju_PUQ_FhrHSAObIlaB-102" value="" style="endArrow=none;html=1;rounded=0;exitX=1;exitY=0.5;exitDx=0;exitDy=0;entryX=0;entryY=0.5;entryDx=0;entryDy=0;" edge="1" parent="1" source="L8Z6CFat-6TSt6zDalqT-7" target="L8Z6CFat-6TSt6zDalqT-3">
          <mxGeometry width="50" height="50" relative="1" as="geometry">
            <mxPoint x="601" y="185" as="sourcePoint" />
            <mxPoint x="651" y="135" as="targetPoint" />
          </mxGeometry>
        </mxCell>
        <mxCell id="Kju_PUQ_FhrHSAObIlaB-103" value="" style="endArrow=none;html=1;rounded=0;entryX=0;entryY=0.5;entryDx=0;entryDy=0;exitX=1;exitY=0.5;exitDx=0;exitDy=0;" edge="1" parent="1" source="L8Z6CFat-6TSt6zDalqT-3" target="L8Z6CFat-6TSt6zDalqT-8">
          <mxGeometry width="50" height="50" relative="1" as="geometry">
            <mxPoint x="750" y="185" as="sourcePoint" />
            <mxPoint x="800" y="135" as="targetPoint" />
          </mxGeometry>
        </mxCell>
        <mxCell id="Kju_PUQ_FhrHSAObIlaB-104" value="" style="endArrow=none;html=1;rounded=0;entryX=0;entryY=0.5;entryDx=0;entryDy=0;exitX=1;exitY=0.5;exitDx=0;exitDy=0;" edge="1" parent="1" source="L8Z6CFat-6TSt6zDalqT-8" target="L8Z6CFat-6TSt6zDalqT-4">
          <mxGeometry width="50" height="50" relative="1" as="geometry">
            <mxPoint x="860" y="185" as="sourcePoint" />
            <mxPoint x="910" y="135" as="targetPoint" />
          </mxGeometry>
        </mxCell>
      </root>
    </mxGraphModel>
  </diagram>
</mxfile>
